<?xml version="1.0" encoding="utf-8" ?>
<svg baseProfile="full" height="543" version="1.1" width="965" xmlns="http://www.w3.org/2000/svg" xmlns:ev="http://www.w3.org/2001/xml-events" xmlns:xlink="http://www.w3.org/1999/xlink"><defs /><rect fill="#141833" height="543" width="965" x="0" y="0" /><path d="M 363.17,481.50 360.33,477.50 358.33,475.33 358.17,474.67 357.50,474.00 356.33,471.67 355.33,470.50 352.50,465.83 351.83,465.17 348.33,458.50 347.33,457.33 347.17,456.67 346.50,456.00 346.17,454.83 345.50,454.17 344.33,452.17 343.33,449.83 342.33,448.33 342.33,447.83 341.33,445.67 340.67,445.00 340.17,443.67 338.67,441.33 338.00,439.67 336.50,437.17 335.33,434.17 334.67,433.17 334.67,432.67 333.67,431.17 333.33,430.00 331.67,427.17 331.17,425.67 330.67,425.17 330.33,423.33 329.50,422.33 329.17,421.00 328.67,420.33 328.33,418.50 327.67,417.33 327.67,416.67 326.50,414.17 326.17,412.83 325.33,412.33 324.33,412.50 321.33,414.17 319.83,414.50 318.83,415.17 314.83,416.50 313.67,417.33 312.50,417.50 311.17,418.33 309.33,418.67 308.33,419.33 306.67,419.83 305.50,420.50 301.50,421.50 299.33,422.33 295.83,423.00 290.67,424.50 289.17,425.17 284.67,425.67 283.50,426.17 281.33,426.33 279.17,427.00 276.50,427.17 272.83,427.83 270.00,427.83 265.67,428.50 257.00,428.67 244.33,428.50 241.17,428.00 238.33,428.00 234.33,427.33 231.33,427.17 228.67,426.33 226.67,426.33 223.50,425.50 221.33,425.33 219.33,424.50 218.67,424.50 215.50,423.50 214.50,423.50 212.50,422.67 207.00,421.50 205.17,420.67 203.50,420.33 202.33,419.67 200.50,419.33 199.17,418.50 198.00,418.33 196.83,417.67 194.67,417.17 194.17,416.67 192.67,416.17 192.00,415.67 189.83,415.17 186.17,413.50 184.67,413.00 183.67,413.00 182.83,413.83 182.50,415.33 181.67,416.50 181.33,418.17 180.83,418.67 180.50,420.00 178.67,423.50 178.33,425.33 175.67,430.67 175.17,432.33 173.50,435.67 172.50,437.00 171.50,440.00 170.50,441.67 170.17,443.17 168.67,445.33 167.00,449.17 164.83,452.67 163.50,455.83 163.50,456.33 161.83,458.83 161.33,460.17 160.67,460.83 159.17,464.00 157.83,465.83 157.33,467.33 156.67,468.00 156.33,469.17 155.50,470.00 155.17,471.00 153.83,472.83 153.33,474.00 152.67,474.67 152.50,475.33 150.00,478.67 149.33,480.33 148.67,480.83 148.00,482.83 149.17,484.17 150.83,485.33 152.50,486.17 153.83,486.50 154.67,487.33 157.17,488.50 157.67,489.00 162.33,491.33 163.17,491.50 164.83,492.50 168.17,493.50 168.83,494.00 170.17,494.33 171.50,495.17 175.67,496.83 179.33,497.83 182.83,499.33 184.33,499.50 188.83,501.00 191.67,501.50 195.67,503.00 198.17,503.50 199.33,504.00 202.17,504.33 204.67,505.17 209.00,505.67 210.17,506.17 212.50,506.33 214.50,507.17 217.50,507.33 218.83,507.67 221.50,507.67 224.50,508.33 227.67,508.33 230.33,509.17 233.50,509.17 237.67,509.67 241.67,509.67 247.67,510.17 257.17,510.33 279.83,509.00 282.50,508.33 286.17,508.17 288.50,507.50 290.50,507.50 293.17,507.17 294.00,506.83 295.33,506.83 296.83,506.33 299.67,506.00 301.67,505.33 303.17,505.33 305.17,504.67 307.17,504.50 310.50,503.50 312.00,503.33 313.83,502.50 316.00,502.17 317.50,501.50 320.17,501.00 321.67,500.33 323.17,500.17 332.33,497.17 334.83,496.17 335.83,495.50 337.00,495.33 340.50,493.50 342.17,493.17 343.67,492.33 344.33,492.33 345.67,491.50 346.17,491.50 349.17,490.17 350.33,489.33 351.17,489.17 351.67,488.67 353.00,488.17 356.00,486.33 357.00,486.17 357.83,485.50 359.33,485.00 361.50,483.50 362.50,483.17 363.17,482.50 Z " fill="#ffffff" fill-rule="evenodd" /><path d="M 786.83,187.50 786.67,189.83 787.00,191.00 787.67,192.00 791.00,195.67 792.50,197.83 793.50,198.67 793.67,199.33 794.33,199.83 794.50,200.33 797.33,203.50 800.50,207.67 801.50,208.50 801.67,209.00 803.33,210.83 803.83,212.17 803.83,334.33 803.50,338.00 802.50,340.33 801.33,342.17 798.33,344.17 796.00,345.00 787.50,346.67 786.67,347.50 786.67,352.17 787.83,353.00 836.33,353.00 837.00,352.17 837.00,347.50 836.50,346.83 831.83,346.00 830.17,346.00 823.50,345.00 820.67,344.17 818.67,343.00 817.33,341.67 815.83,338.83 815.33,337.00 815.00,333.50 815.00,228.50 815.17,227.83 815.67,227.33 816.17,227.33 816.83,227.67 818.17,229.00 819.67,231.17 820.33,231.67 820.50,232.17 826.17,238.83 827.83,241.17 829.33,242.67 829.50,243.17 832.50,246.50 832.67,247.00 833.50,247.67 833.50,248.00 834.33,248.67 834.50,249.17 838.50,253.83 838.50,254.17 839.33,254.83 841.67,258.00 852.50,270.83 855.67,275.17 861.33,281.83 863.67,285.00 865.50,286.83 865.50,287.17 867.67,289.50 868.67,291.00 869.33,291.50 872.67,296.17 873.33,296.67 873.67,297.33 876.50,300.50 876.67,301.00 881.67,306.83 882.67,308.33 883.33,308.83 885.00,311.17 887.50,313.83 887.50,314.17 889.67,316.83 891.33,318.50 891.67,319.33 892.33,319.83 895.50,323.67 895.67,324.17 896.33,324.67 896.50,325.17 897.83,326.50 903.67,334.00 905.33,335.67 905.50,336.17 907.17,337.67 908.67,339.83 913.67,345.83 914.50,346.50 914.67,347.00 918.50,351.50 918.67,352.00 919.50,352.67 920.67,353.00 924.67,352.83 925.17,352.50 925.33,204.17 925.67,202.00 926.67,199.67 927.17,199.17 927.33,198.50 929.50,196.50 931.67,195.50 936.83,194.17 939.17,194.00 942.00,193.17 942.33,192.67 942.33,187.67 941.33,187.17 892.83,187.17 892.00,187.67 892.00,192.17 892.67,193.17 899.00,194.17 903.50,194.50 907.83,195.50 910.17,196.67 912.00,198.50 913.50,201.50 913.83,205.17 914.17,206.50 914.17,310.50 913.83,311.50 913.33,312.00 912.33,312.17 910.83,310.83 908.33,307.50 906.33,305.33 906.17,304.83 904.33,303.17 901.83,299.83 899.33,297.17 895.33,291.67 894.33,290.83 888.00,282.67 882.33,276.17 877.33,269.50 874.33,266.17 874.17,265.67 873.33,265.00 873.33,264.67 870.17,260.83 869.33,260.17 869.33,259.83 866.33,256.33 864.33,253.50 863.67,253.00 863.33,252.33 860.50,249.17 860.33,248.67 853.17,240.17 852.17,238.67 851.67,238.33 847.17,232.50 846.67,232.17 844.17,228.83 838.50,222.17 838.33,221.67 835.33,218.33 834.17,216.50 833.50,216.00 829.50,210.83 812.33,190.17 812.17,189.67 810.00,187.33 787.67,187.17 Z " fill="#ffffff" fill-rule="evenodd" /><path d="M 718.33,187.17 717.50,187.67 717.67,193.00 718.67,193.50 720.17,193.67 720.83,194.00 726.00,194.83 730.33,196.50 733.33,199.50 734.50,202.33 734.67,336.50 734.33,338.17 732.83,341.17 731.67,342.50 729.17,344.17 725.50,345.33 721.17,346.00 717.83,346.83 717.50,347.33 717.50,352.33 718.50,353.00 770.67,353.00 771.67,352.50 771.83,352.17 771.67,347.17 771.17,346.67 767.17,345.83 766.00,345.83 760.83,344.50 758.50,343.33 757.33,342.33 755.83,340.17 754.50,336.17 754.50,204.00 755.33,200.83 756.33,198.83 758.83,196.50 760.50,195.67 764.50,194.50 768.33,194.00 769.67,193.50 771.17,193.33 771.83,192.33 771.83,187.83 771.17,187.17 Z " fill="#ffffff" fill-rule="evenodd" /><path d="M 698.17,187.17 577.67,187.17 576.50,187.50 576.67,193.00 577.67,193.50 578.50,193.50 579.83,194.00 583.00,194.33 586.33,195.17 589.33,196.50 591.67,198.67 592.33,199.67 593.50,202.67 593.67,205.67 593.50,337.33 592.50,339.50 592.50,340.00 590.67,342.50 589.33,343.50 585.17,345.17 576.83,346.83 576.50,347.17 576.67,352.67 577.67,353.00 635.00,353.00 635.50,352.67 635.67,347.33 635.33,346.83 624.00,345.50 619.50,344.33 617.83,343.50 615.50,341.17 614.33,339.33 613.67,337.17 613.33,333.33 613.33,280.50 613.50,279.50 614.33,278.33 615.17,278.00 651.50,278.00 655.50,278.33 657.33,278.83 660.33,280.33 662.50,282.67 664.33,285.67 666.33,292.33 666.67,295.50 667.33,297.17 667.67,300.17 668.50,302.00 669.83,302.33 673.33,302.33 674.33,302.17 674.50,301.83 674.67,244.33 674.17,242.83 669.17,242.83 668.17,243.50 667.50,245.83 667.33,248.00 666.50,250.50 666.33,252.83 664.33,259.33 662.17,262.83 660.50,264.50 659.33,265.33 657.33,266.17 655.50,266.67 651.67,267.00 615.83,267.00 614.67,266.83 613.67,266.00 613.33,264.67 613.33,207.17 613.67,204.83 614.50,202.67 615.33,202.00 615.67,201.33 617.83,199.67 620.17,198.83 623.00,198.33 664.33,198.33 668.17,198.50 671.50,199.17 672.83,199.17 677.17,200.33 680.33,202.00 682.17,203.50 684.17,205.83 685.33,207.67 687.33,211.67 687.67,213.00 688.17,213.67 688.50,215.00 690.17,218.67 690.50,220.17 691.33,221.67 692.50,225.33 693.33,226.83 693.67,228.17 694.17,228.83 695.00,231.17 696.50,231.67 700.67,231.50 701.17,231.17 701.17,228.67 700.67,223.33 700.33,211.50 699.67,204.50 699.50,195.33 698.83,187.67 Z " fill="#ffffff" fill-rule="evenodd" /><path d="M 508.33,187.17 507.83,187.33 507.50,187.83 507.50,192.33 508.00,193.17 511.00,194.00 512.17,194.00 515.50,194.67 516.67,195.17 518.00,195.33 520.17,196.33 522.33,198.17 523.33,199.83 524.50,202.67 524.67,333.33 524.33,338.17 523.50,339.50 523.17,340.67 522.33,341.83 520.50,343.50 518.00,344.67 508.00,346.83 507.50,347.50 507.50,352.17 507.83,352.67 508.50,353.00 560.50,353.00 561.50,352.33 561.33,347.00 560.33,346.50 558.67,346.33 557.17,345.83 555.83,345.83 552.50,345.00 548.83,343.50 547.00,341.83 546.00,340.33 545.00,338.17 544.67,336.50 544.50,206.00 544.67,203.17 546.00,199.67 547.50,197.50 549.17,196.33 551.50,195.33 554.50,194.50 560.33,193.50 561.33,193.00 561.50,187.50 560.83,187.17 Z " fill="#ffffff" fill-rule="evenodd" /><path d="M 394.67,187.33 394.33,187.83 394.50,191.50 395.17,192.67 395.50,194.17 396.33,195.67 396.33,196.17 398.67,202.00 399.17,202.67 399.50,204.33 400.33,205.67 400.50,207.67 399.50,210.00 399.33,211.00 397.67,214.67 397.33,216.17 396.67,217.17 396.17,219.00 395.67,219.67 395.33,221.17 394.50,222.50 394.17,224.17 393.67,224.67 393.33,226.17 392.50,227.67 391.33,231.33 390.50,232.83 390.33,233.83 389.67,234.83 389.33,236.33 388.50,237.83 388.33,239.00 387.50,240.50 387.33,241.67 386.67,242.67 385.33,246.67 384.50,248.00 384.33,249.17 383.50,250.50 383.33,251.50 381.50,255.50 381.17,257.17 380.67,257.83 379.33,261.83 376.50,268.33 376.17,269.83 374.50,273.50 374.17,275.00 372.50,278.83 372.33,279.83 371.67,280.83 370.17,285.33 368.67,288.50 368.33,290.00 367.67,291.00 367.33,292.50 366.67,293.50 366.33,295.17 365.50,296.67 365.33,297.67 364.67,298.67 363.33,302.83 362.50,304.33 361.17,308.33 359.50,311.83 359.33,313.00 358.50,314.50 358.17,316.00 357.50,317.00 357.17,318.50 356.50,319.50 356.17,321.17 355.67,321.83 355.33,323.33 354.50,324.67 354.33,325.83 353.67,326.83 353.33,328.33 352.67,329.50 350.17,336.17 349.67,336.67 349.17,338.17 347.33,340.67 344.17,343.33 340.83,344.83 331.83,346.67 331.17,347.50 331.17,352.33 331.67,352.83 332.50,353.00 377.33,352.83 377.33,346.83 373.83,346.00 371.67,345.83 366.00,344.17 364.83,343.50 363.17,342.00 362.33,339.67 362.33,337.00 362.67,335.17 363.33,333.83 363.67,332.33 364.33,331.17 365.83,326.83 366.33,326.17 367.83,321.83 370.67,315.17 371.83,311.50 373.33,308.33 373.67,306.83 374.67,304.50 375.83,303.50 437.50,303.33 439.00,303.67 440.17,304.83 441.50,307.83 441.50,308.33 442.33,309.50 442.83,311.00 443.33,311.67 443.67,313.17 445.33,316.83 446.83,321.17 447.33,321.83 447.67,323.17 448.50,324.67 448.50,325.33 450.17,328.83 450.83,331.00 451.33,331.67 451.67,333.33 452.33,334.50 452.83,337.67 452.50,340.83 451.67,342.00 450.00,343.50 446.17,345.17 443.33,345.83 438.50,346.50 437.67,347.00 437.50,352.33 438.00,352.83 493.33,352.83 493.67,352.33 493.67,347.33 493.17,346.67 486.50,345.50 485.33,345.00 483.50,344.67 481.67,343.83 477.83,341.17 475.50,338.00 474.50,336.17 474.17,334.83 473.67,334.33 473.33,333.00 472.50,331.50 472.33,330.50 471.50,329.00 471.50,328.50 470.83,327.33 470.00,324.83 469.50,324.17 469.17,322.67 468.33,321.17 468.33,320.67 467.67,319.50 466.33,315.67 465.50,314.17 465.17,312.67 463.50,309.17 463.17,307.83 462.67,307.17 462.00,305.00 459.50,300.00 459.17,298.50 457.67,295.33 456.17,290.83 455.67,290.17 452.00,280.50 450.50,277.33 449.33,273.67 448.50,272.17 448.17,270.83 443.33,259.33 443.33,258.83 442.50,257.33 442.00,255.50 439.50,250.33 437.00,243.50 436.67,243.17 435.17,239.00 433.67,235.83 433.33,234.33 432.50,232.83 432.17,231.50 431.83,231.17 430.17,226.50 429.33,225.00 428.33,222.00 427.33,220.17 426.33,216.83 424.67,213.33 423.83,210.83 422.50,208.00 422.33,207.00 421.50,205.67 421.33,204.67 419.67,201.17 419.33,199.83 417.33,195.17 417.33,194.67 416.50,193.17 414.33,187.50 413.33,187.17 Z M 406.83,224.33 407.33,224.33 408.00,224.83 409.33,227.50 409.83,229.33 410.50,230.50 410.50,231.17 411.33,232.67 411.33,233.17 412.17,234.67 413.67,239.00 415.33,242.50 415.67,244.00 416.17,244.67 416.50,246.00 418.50,250.50 418.50,251.17 419.33,252.50 419.50,253.50 420.33,255.00 420.50,256.17 424.33,264.67 424.67,266.00 425.50,267.50 426.67,271.00 427.33,272.17 428.67,276.33 430.17,279.50 432.67,286.17 433.50,287.67 433.50,288.17 434.33,289.83 434.33,291.17 433.00,292.33 382.33,292.50 381.17,292.17 380.50,291.50 380.50,289.67 380.83,288.67 381.33,288.00 381.67,286.50 382.50,285.00 382.67,284.00 386.17,275.67 387.67,271.17 389.50,267.00 389.67,266.00 390.33,265.00 391.83,260.67 392.17,260.33 393.67,255.83 394.17,255.17 394.67,253.33 396.50,249.17 396.50,248.67 397.33,247.17 397.50,246.00 398.17,245.00 399.67,240.50 400.33,239.50 401.50,235.83 402.17,234.83 402.83,232.50 404.33,229.33 405.83,225.17 Z " fill="#ffffff" fill-rule="evenodd" /><path d="M 251.83,184.50 243.83,185.17 242.00,185.83 238.67,186.50 238.17,186.83 236.00,187.17 232.83,188.50 231.83,189.17 228.17,190.67 221.50,195.33 216.50,200.67 215.17,202.50 214.33,204.33 211.67,208.50 211.33,210.00 210.67,211.17 210.33,212.83 209.50,214.83 209.33,217.33 208.50,220.33 208.67,229.83 209.00,230.83 209.50,235.00 210.17,236.50 210.67,239.17 211.33,240.33 211.50,241.33 212.83,244.00 213.33,244.50 213.67,245.83 218.67,252.83 223.83,258.17 230.50,263.17 231.17,263.33 231.67,263.83 237.50,267.17 238.83,267.50 242.67,269.33 243.17,269.33 244.83,270.33 246.33,270.67 252.83,273.33 253.83,273.50 259.67,276.17 261.17,276.50 261.50,276.83 266.17,278.50 266.83,279.00 268.17,279.33 271.67,281.17 273.17,281.67 277.50,284.33 278.17,284.50 280.67,286.33 281.33,286.50 282.00,287.33 284.83,289.50 288.17,292.83 289.67,294.67 289.83,295.33 290.17,295.50 291.50,298.17 292.50,299.50 292.50,300.00 293.50,302.17 293.50,303.00 294.50,305.50 294.67,308.83 295.17,312.33 294.67,319.17 293.50,324.00 292.50,326.83 289.50,332.17 285.50,336.50 281.33,339.67 275.33,342.67 267.83,344.50 261.17,345.00 253.33,344.50 245.83,342.83 237.67,339.17 237.00,338.50 236.67,338.50 233.17,336.17 227.50,331.00 224.83,327.50 223.50,326.17 220.17,320.67 219.00,319.17 216.67,314.50 216.50,313.67 213.67,308.33 213.67,307.83 211.17,302.50 210.33,302.00 205.50,302.00 204.83,302.50 204.83,303.50 205.33,305.33 205.50,308.67 206.50,313.50 206.50,315.83 207.33,319.17 207.67,323.67 208.33,326.00 208.50,329.67 209.33,333.00 209.50,336.50 210.17,338.83 210.67,343.50 213.50,345.33 219.67,348.17 230.67,351.83 239.83,354.00 243.17,354.33 246.17,355.00 253.83,355.33 255.33,355.83 255.67,356.17 255.67,357.00 255.33,358.17 254.83,375.83 255.00,377.33 255.83,378.00 258.33,378.50 259.67,379.17 260.67,379.17 261.17,378.17 261.67,359.17 261.17,358.33 259.00,358.00 257.50,357.33 257.00,356.67 257.00,356.17 257.33,355.83 259.33,355.50 269.33,355.00 276.50,353.17 278.17,353.00 282.83,351.17 283.83,350.50 285.17,350.17 286.50,349.33 288.00,349.00 291.00,347.17 296.33,343.33 302.17,337.17 304.83,333.17 308.17,327.00 308.33,325.83 309.17,324.17 309.67,321.67 310.50,319.33 311.17,315.17 311.67,310.17 311.67,302.83 311.17,298.83 310.00,293.67 308.00,288.50 306.17,285.50 305.50,285.00 304.33,282.67 300.33,278.17 300.17,277.67 297.00,274.50 293.17,271.33 287.50,267.67 282.67,265.33 281.50,264.50 280.67,264.33 279.17,263.33 278.67,263.33 277.67,262.67 276.83,262.50 271.33,260.00 266.50,258.33 265.33,257.67 264.33,257.50 260.83,255.83 250.67,252.00 247.50,250.50 246.50,250.33 245.67,249.67 240.83,247.33 235.50,243.67 232.83,241.33 229.33,237.17 226.67,232.17 226.50,231.00 225.67,229.00 224.83,221.83 225.83,214.67 226.50,213.33 226.83,211.50 227.83,209.50 228.33,209.00 228.67,208.00 230.17,205.83 233.67,202.00 238.50,198.67 240.17,198.17 241.83,197.17 243.67,196.50 247.83,195.50 251.00,195.17 259.50,195.33 266.00,196.67 269.67,198.17 271.17,198.50 272.50,199.33 273.17,199.33 274.17,200.17 278.83,202.67 280.67,204.33 281.00,204.33 283.33,206.17 289.50,212.50 289.67,213.17 291.00,214.67 292.33,216.67 295.33,222.67 299.67,233.17 300.50,233.67 304.00,233.83 305.00,233.67 305.50,233.17 305.33,230.00 304.50,225.50 304.33,222.00 303.50,217.83 303.33,214.17 302.50,209.67 302.33,206.17 301.50,201.83 301.50,199.83 300.83,195.50 299.17,194.33 291.17,191.00 277.83,187.17 275.67,187.00 273.17,186.33 265.00,185.00 259.67,185.00 255.67,184.50 Z " fill="#ffffff" fill-rule="evenodd" /><path d="M 258.00,160.83 257.67,161.33 257.67,180.83 258.00,181.33 259.67,182.17 262.50,182.83 263.50,182.83 264.00,182.33 264.17,181.67 264.17,163.50 264.00,162.83 263.00,161.83 260.00,161.00 Z " fill="#ffffff" fill-rule="evenodd" /><path d="M 38.67,160.67 37.67,161.83 37.33,163.17 35.67,165.67 35.33,167.50 34.83,168.00 34.50,169.17 33.50,170.67 33.17,172.00 32.50,172.67 31.50,174.67 30.50,177.50 29.67,178.67 29.33,180.33 28.50,181.67 27.33,185.67 26.67,187.00 26.50,188.17 24.67,192.33 24.33,194.50 23.67,196.00 23.33,198.33 22.67,199.67 22.33,202.17 20.83,207.17 20.33,211.33 19.67,212.83 19.50,215.50 18.67,218.17 18.17,222.33 17.50,224.33 17.33,227.50 16.50,230.00 16.50,233.50 15.83,240.83 15.50,242.00 15.33,247.67 14.50,254.67 14.50,277.33 14.67,284.50 15.33,288.83 15.50,296.17 16.17,299.50 16.17,302.00 16.83,308.83 17.50,311.17 17.67,314.17 18.33,315.50 18.50,317.83 19.17,319.67 19.50,322.67 20.50,326.67 20.50,328.33 21.50,331.00 21.50,332.00 22.33,334.50 22.67,337.00 23.17,337.67 23.67,340.17 24.33,341.50 24.67,344.33 25.17,344.83 26.33,347.67 26.67,349.33 27.33,350.50 27.67,352.33 28.33,353.67 28.67,355.50 30.17,358.50 30.50,360.17 31.33,361.50 31.67,363.00 32.33,363.83 32.67,365.17 33.33,365.83 33.67,367.17 35.33,370.33 35.67,372.00 37.17,374.33 37.33,375.17 38.17,376.33 38.83,378.00 39.50,378.50 40.67,378.50 44.00,376.17 44.50,375.50 45.17,375.33 47.50,373.33 48.17,373.17 48.83,372.50 51.00,371.33 54.67,368.67 59.00,366.17 60.33,365.00 63.17,363.83 68.00,360.67 69.67,360.17 71.83,358.50 75.50,356.67 77.17,356.17 81.67,353.33 83.00,353.00 89.50,349.50 91.17,349.17 95.67,346.50 97.17,346.17 99.17,345.17 99.67,344.67 101.17,344.33 102.50,343.33 103.17,343.33 104.50,342.50 106.17,342.17 107.33,341.33 110.17,340.00 110.50,339.50 110.33,337.83 108.33,334.17 108.17,333.33 107.33,332.17 107.00,330.67 106.50,330.17 106.00,327.83 103.50,321.83 103.33,320.67 102.83,319.83 102.00,316.67 100.67,313.17 98.67,305.00 98.67,303.17 97.83,300.33 97.67,298.33 96.67,295.33 96.67,293.67 96.17,290.83 96.17,288.50 95.33,284.33 95.33,280.33 94.83,273.83 94.83,263.67 95.33,259.17 95.33,253.83 95.83,251.17 96.00,248.17 96.33,247.17 96.50,243.50 97.50,240.83 98.67,233.17 100.33,227.17 100.50,225.50 101.67,223.00 101.67,222.50 102.00,222.17 102.50,219.50 104.17,215.83 104.50,214.33 105.67,212.00 107.50,206.50 108.00,206.00 110.83,200.00 110.83,198.67 109.17,197.67 107.67,197.33 106.33,196.50 105.67,196.50 104.17,195.50 102.67,195.00 98.17,192.67 96.50,192.33 93.33,190.50 91.83,190.17 86.17,187.33 85.00,186.50 81.67,185.33 77.67,183.33 77.00,182.67 75.67,182.33 73.67,181.33 73.17,180.83 71.17,179.67 69.67,179.17 68.83,178.50 67.50,178.17 63.17,175.50 60.67,174.33 60.00,173.67 58.67,173.17 56.83,171.83 54.50,170.83 53.33,169.83 50.50,168.17 50.33,167.83 49.17,167.33 48.33,166.50 47.50,166.33 45.83,164.83 44.67,164.33 40.17,160.83 Z " fill="#ffffff" fill-rule="evenodd" /><path d="M 147.50,62.50 147.67,63.83 150.50,67.17 154.50,73.17 155.33,73.83 157.50,78.17 158.17,78.83 159.67,81.83 160.33,82.50 161.67,85.50 163.33,87.83 163.67,89.17 164.50,90.50 164.50,91.17 165.50,92.50 165.67,93.33 166.33,94.00 167.67,97.00 168.17,97.50 168.50,98.83 169.17,99.67 169.67,101.17 170.17,101.67 170.67,103.33 171.50,104.50 171.67,105.83 172.33,106.67 172.33,107.17 173.67,109.83 174.50,110.67 174.67,111.67 175.33,112.83 175.50,114.00 177.17,116.67 177.67,118.17 177.67,119.00 178.50,120.33 179.50,123.17 182.33,128.67 183.50,132.00 184.67,133.17 186.00,132.83 195.17,128.50 197.50,128.17 198.50,127.50 200.17,127.17 201.00,126.50 203.17,126.17 207.67,124.50 213.00,123.33 214.50,122.67 217.00,122.33 218.83,121.67 223.33,121.17 225.67,120.50 228.17,120.50 230.17,120.00 233.17,119.83 236.50,119.17 242.17,119.00 245.67,118.50 255.50,118.33 261.67,118.50 266.17,119.00 269.83,119.00 278.50,120.33 283.00,120.50 287.00,121.50 288.33,121.50 290.17,122.17 296.17,123.33 298.00,124.17 300.33,124.50 302.67,125.33 303.33,125.33 304.50,126.00 307.00,126.50 311.83,128.33 313.33,128.50 314.83,129.33 316.33,129.67 316.83,130.17 318.00,130.50 319.00,131.17 320.50,131.50 321.83,132.33 323.67,132.67 324.33,132.17 325.00,131.00 325.33,129.17 326.17,128.00 326.50,126.67 327.33,125.33 327.67,123.50 329.33,120.00 329.67,118.67 331.33,115.50 331.50,114.50 333.17,111.67 333.50,110.50 334.33,109.33 334.50,108.50 335.33,107.17 335.50,106.33 337.33,102.50 338.17,101.33 338.33,100.50 342.00,94.17 342.50,92.50 343.33,91.33 343.50,90.50 345.00,88.17 346.83,84.50 348.50,82.17 349.50,79.67 350.00,79.17 350.33,78.00 351.17,77.00 351.67,75.67 353.17,73.83 353.50,72.83 354.33,72.17 357.83,66.67 359.17,65.33 359.50,64.50 360.83,63.00 361.33,62.17 361.33,61.67 359.33,60.50 358.00,60.33 357.17,59.67 356.00,59.33 355.17,58.67 353.00,57.67 350.83,57.33 349.50,56.50 348.50,56.33 347.17,55.67 345.67,55.50 341.67,53.67 339.50,53.33 334.83,51.50 332.67,51.17 329.67,50.00 324.67,49.17 324.17,48.83 321.50,48.33 317.17,47.00 316.33,47.00 311.00,45.67 303.50,44.50 302.00,44.00 299.33,43.83 297.67,43.33 294.83,43.33 292.50,42.67 288.33,42.50 285.50,42.00 282.50,42.00 277.67,41.33 273.83,41.50 265.67,40.67 247.50,40.67 240.33,41.50 234.67,41.50 229.83,42.17 219.50,42.67 216.83,43.50 214.50,43.50 210.50,44.33 208.50,44.33 204.67,45.00 201.00,46.00 196.17,46.67 192.67,47.50 191.33,48.17 187.83,48.67 185.33,49.50 184.33,49.50 182.33,50.17 179.50,50.67 171.17,53.50 168.83,54.00 163.33,56.17 157.67,57.83 153.00,60.00 150.83,60.67 Z " fill="#ffffff" fill-rule="evenodd" /></svg>