<?xml version="1.0" encoding="utf-8" ?>
<svg baseProfile="full" height="1536" version="1.1" width="864" xmlns="http://www.w3.org/2000/svg" xmlns:ev="http://www.w3.org/2001/xml-events" xmlns:xlink="http://www.w3.org/1999/xlink"><defs /><rect fill="#141833" height="1536" width="864" x="0" y="0" /><path d="M 283.50,1018.67 282.33,1016.83 281.50,1016.00 281.33,1015.50 280.67,1015.00 280.17,1014.00 279.50,1013.33 279.33,1012.67 278.67,1012.17 278.33,1011.00 277.50,1010.17 276.17,1007.83 275.50,1007.17 275.17,1006.17 274.50,1005.50 274.33,1004.83 273.67,1004.00 272.33,1001.17 271.50,1000.33 271.33,999.67 270.17,997.67 269.67,997.17 269.33,996.00 268.67,995.17 267.17,991.67 266.50,991.00 266.33,990.33 265.50,989.17 264.00,985.83 263.50,985.33 263.33,984.33 261.50,981.00 261.17,979.83 260.50,979.17 260.50,978.67 260.17,978.00 259.50,977.33 259.33,975.83 258.50,974.67 258.17,973.00 257.67,972.33 257.33,971.33 257.33,970.50 256.50,969.17 256.50,968.50 256.17,968.00 254.83,968.17 253.83,968.67 253.33,969.17 251.67,969.50 250.17,970.33 248.83,970.67 247.83,971.33 246.83,971.50 245.50,972.33 243.67,972.67 243.17,973.17 241.67,973.50 240.33,974.33 238.67,974.50 236.67,975.33 234.67,975.50 233.33,976.17 230.83,976.67 230.17,977.17 226.50,977.67 225.17,978.17 224.17,978.17 223.00,978.50 220.33,978.67 218.00,979.33 214.83,979.33 214.67,979.50 210.00,979.67 209.83,979.83 197.83,979.83 197.67,979.67 196.00,979.67 195.83,979.50 190.50,979.33 189.00,978.83 187.50,978.83 185.50,978.33 183.17,978.17 180.83,977.50 179.00,977.33 177.33,976.50 174.67,976.17 173.33,975.50 171.50,975.33 169.17,974.50 168.50,974.50 167.50,974.17 166.83,973.67 164.83,973.17 164.17,972.67 161.50,972.00 160.83,971.50 159.83,971.33 158.17,970.33 156.67,970.00 156.00,969.50 154.67,969.33 153.17,968.50 152.33,968.33 151.50,968.83 151.33,970.17 150.50,971.50 150.33,972.33 149.50,973.83 149.17,975.00 148.50,975.83 148.33,977.17 147.50,978.50 147.33,979.50 146.50,980.67 146.33,981.83 145.50,983.17 145.33,984.00 144.67,984.67 144.17,986.17 143.50,987.00 143.33,988.17 142.50,989.33 142.33,990.50 140.83,992.67 140.33,994.33 139.67,995.00 139.17,996.50 138.50,997.17 138.17,998.17 137.67,998.83 137.33,1000.17 136.67,1000.83 136.50,1001.50 135.17,1004.00 134.67,1004.50 134.33,1005.50 133.50,1006.50 133.33,1007.33 132.50,1008.50 132.33,1009.33 131.67,1010.00 130.33,1012.50 129.67,1013.17 129.33,1014.00 127.33,1016.67 127.33,1017.17 126.67,1017.83 126.17,1018.83 126.17,1019.67 126.67,1020.33 127.33,1020.50 128.50,1021.50 129.33,1021.67 131.17,1022.67 131.67,1023.17 133.33,1023.83 133.83,1024.33 135.17,1024.83 135.67,1025.33 137.00,1025.67 137.83,1026.33 139.00,1026.50 140.50,1027.33 142.17,1027.67 143.00,1028.33 143.83,1028.50 144.83,1029.17 147.00,1029.67 147.67,1030.17 149.50,1030.50 151.67,1031.50 153.17,1031.67 153.83,1032.17 156.00,1032.50 158.17,1033.33 159.67,1033.50 160.67,1034.17 164.00,1034.67 165.67,1035.33 167.67,1035.50 171.67,1036.50 173.33,1036.50 175.17,1037.33 180.33,1037.50 182.00,1038.00 183.83,1038.00 184.67,1038.33 187.00,1038.50 187.17,1038.67 190.00,1038.67 192.33,1039.17 206.17,1039.50 206.33,1039.33 211.33,1039.33 211.50,1039.17 213.50,1039.17 213.67,1039.00 217.00,1039.00 217.83,1038.67 219.17,1038.67 219.33,1038.50 224.00,1038.33 228.00,1037.50 231.83,1037.33 235.83,1036.33 237.33,1036.33 238.83,1035.67 242.33,1035.33 243.83,1034.67 246.33,1034.33 247.50,1033.67 249.83,1033.33 251.83,1032.50 253.50,1032.33 254.50,1031.83 255.17,1031.83 255.67,1031.50 257.33,1031.17 258.00,1030.67 259.67,1030.33 260.50,1029.83 262.17,1029.50 263.50,1028.67 265.00,1028.33 266.50,1027.33 267.17,1027.33 268.33,1026.67 269.83,1026.33 270.83,1025.67 272.17,1025.33 273.00,1024.67 274.33,1024.17 274.83,1023.67 276.17,1023.33 276.83,1022.67 277.50,1022.33 278.00,1022.33 279.17,1021.50 280.17,1021.33 280.67,1020.83 283.17,1019.50 283.50,1019.17 Z " fill="#ffffff" fill-rule="evenodd" /><path d="M 205.00,927.00 204.67,928.67 204.33,942.00 204.67,942.50 206.00,942.67 206.83,943.17 208.33,943.50 208.67,943.17 208.67,938.33 208.83,938.17 209.17,928.67 208.17,928.17 206.50,928.00 206.00,927.50 205.83,927.00 Z " fill="#ffffff" fill-rule="evenodd" /><path d="M 306.83,803.00 306.50,803.33 306.67,806.17 309.17,811.83 309.17,812.33 310.17,814.50 310.33,815.50 311.00,816.50 311.17,817.00 311.00,818.33 310.33,819.33 310.17,820.33 309.33,821.83 309.17,823.00 308.33,824.50 308.00,825.83 306.67,828.67 306.00,831.00 305.33,832.17 305.17,833.00 304.33,834.67 304.33,835.17 303.50,836.67 303.17,838.17 302.33,839.83 302.33,840.33 301.50,841.83 301.17,843.17 300.67,843.83 300.17,845.83 299.50,847.00 299.17,848.33 298.50,849.33 298.17,851.00 296.50,854.50 296.17,856.00 295.33,857.50 295.00,859.00 294.50,859.67 294.17,861.00 292.50,864.67 292.17,866.17 291.33,867.83 291.17,868.83 290.50,870.00 290.00,872.00 289.50,872.67 289.17,874.00 288.67,874.67 288.17,876.33 287.50,877.50 287.17,879.17 286.33,880.67 286.00,882.17 285.50,882.67 285.17,884.00 284.33,885.67 284.00,887.17 283.50,887.83 282.00,892.17 281.50,892.83 281.17,894.33 280.33,895.83 280.17,897.00 279.50,898.00 279.17,899.67 278.50,900.83 278.17,902.17 277.50,903.17 277.33,904.17 276.17,906.67 276.17,907.33 275.33,908.83 275.17,909.67 274.50,910.67 274.33,911.67 273.00,914.17 270.17,917.00 267.67,918.33 266.33,918.50 264.50,919.17 262.33,919.33 260.67,919.83 260.17,920.33 260.17,921.83 260.33,922.00 260.17,923.67 260.67,924.33 261.17,924.17 261.67,924.33 263.00,924.33 263.17,924.17 291.83,924.17 292.00,924.33 293.33,924.33 293.83,924.00 294.00,923.50 294.00,920.50 293.67,920.00 292.00,919.33 288.83,919.00 288.33,918.67 286.50,918.33 284.33,917.17 283.67,916.50 282.67,914.33 282.67,913.17 283.00,911.67 283.33,911.17 283.67,909.33 284.33,908.33 284.83,906.50 285.33,905.83 285.67,904.50 286.50,903.00 286.67,901.83 287.33,900.83 287.67,899.33 288.33,898.33 288.83,896.50 289.17,896.17 289.67,894.17 290.33,893.17 290.67,891.50 291.33,890.50 291.50,889.50 292.00,888.50 292.83,888.00 293.50,887.83 338.33,887.83 339.83,888.67 340.50,889.83 340.50,890.33 342.33,893.67 342.67,895.17 344.17,898.50 344.50,900.00 345.33,901.50 345.83,903.17 346.17,903.50 346.50,904.83 347.17,906.00 347.50,907.33 348.17,908.50 348.67,910.33 349.33,911.83 349.33,914.83 349.17,915.33 348.50,916.33 347.33,917.33 345.50,918.33 344.83,918.33 342.50,919.17 340.00,919.33 338.33,920.00 338.00,920.83 338.17,921.00 338.17,923.67 338.50,924.17 341.00,924.17 341.17,924.33 342.00,924.33 342.17,924.17 368.33,924.17 368.50,924.33 371.67,924.33 371.83,924.17 375.33,924.33 375.50,924.17 376.83,924.17 377.00,924.33 378.33,924.33 378.83,924.17 379.17,923.67 379.17,922.17 379.00,922.00 379.17,920.50 378.83,920.00 377.83,919.50 376.17,919.17 374.67,919.17 371.00,918.00 367.83,916.00 365.50,913.00 365.17,911.83 364.83,911.50 364.33,910.00 363.50,908.50 363.33,907.50 362.67,906.33 362.17,904.67 361.67,904.00 361.33,902.67 360.67,901.50 359.67,898.50 358.83,897.00 358.33,895.17 357.67,894.00 356.33,890.17 355.83,889.50 354.50,886.67 354.33,885.83 353.50,884.17 353.50,883.67 352.67,882.17 352.17,880.17 350.67,877.00 349.83,874.50 349.50,874.17 349.17,872.67 348.67,872.00 348.33,870.67 347.50,869.17 346.33,865.67 345.50,864.00 345.17,862.67 344.67,862.00 344.00,860.00 343.50,859.17 343.33,858.17 342.67,857.00 342.33,855.67 341.50,854.00 341.17,852.50 340.33,851.33 340.33,851.00 339.67,849.83 338.33,846.00 337.67,844.83 337.33,843.50 335.67,840.00 335.33,838.50 334.50,837.00 334.17,835.67 333.67,835.00 332.17,830.67 331.33,829.17 331.33,828.67 330.50,827.00 329.50,824.00 328.67,822.50 327.33,818.67 326.50,817.17 326.17,816.00 325.33,814.33 325.33,813.83 324.50,812.33 324.50,811.83 323.67,810.17 323.33,808.83 322.50,807.33 322.00,805.67 321.67,805.33 321.17,803.50 320.50,803.00 Z M 315.50,830.00 316.50,830.33 317.00,831.00 317.67,833.33 318.00,833.67 318.33,835.00 319.17,836.50 319.50,837.83 320.00,838.50 320.50,840.50 322.17,844.00 322.50,845.50 324.00,848.67 324.83,851.17 325.17,851.50 325.50,853.00 326.33,854.50 326.67,855.83 328.17,858.83 328.50,860.17 329.17,861.33 329.67,863.00 330.17,863.67 330.67,865.33 331.00,865.67 331.50,867.83 333.17,871.50 333.67,873.33 334.00,873.67 334.50,874.83 334.50,875.33 335.33,876.67 335.33,877.17 335.83,878.17 335.83,879.00 334.83,880.00 297.00,880.00 296.17,879.33 296.00,878.50 296.50,877.33 296.50,876.83 297.50,875.00 297.83,873.50 298.33,872.83 298.67,871.50 299.33,870.33 299.67,868.67 300.33,867.50 300.50,866.50 302.33,862.50 302.83,860.50 303.33,859.83 304.50,856.50 305.33,854.83 305.83,853.00 306.33,852.17 306.67,850.83 307.17,850.17 307.50,848.83 308.33,847.17 309.83,842.83 310.33,842.17 310.67,840.67 311.50,839.00 311.50,838.50 312.33,837.00 312.50,836.00 313.17,835.00 313.50,833.50 314.33,831.83 314.50,831.00 Z " fill="#ffffff" fill-rule="evenodd" /><path d="M 594.50,802.83 594.00,803.50 594.17,805.50 594.50,806.17 598.33,810.50 599.50,812.33 600.17,812.83 602.33,815.50 602.50,816.00 603.17,816.50 603.50,817.17 606.17,820.17 606.50,821.00 606.50,911.67 606.33,911.83 606.33,913.33 605.00,916.00 604.00,917.00 601.83,918.17 600.00,918.50 598.50,919.17 597.17,919.17 594.67,919.67 594.00,920.50 594.00,921.67 594.17,921.83 594.00,923.50 594.17,924.00 594.67,924.33 595.33,924.17 598.00,924.17 598.17,924.33 599.33,924.33 599.50,924.17 626.00,924.17 626.17,924.33 628.33,924.17 628.50,924.33 630.17,924.33 630.50,924.00 630.50,921.17 630.67,920.50 630.17,919.83 628.50,919.67 627.50,919.33 626.50,919.33 626.33,919.17 624.17,919.17 621.67,918.50 619.17,918.17 617.33,917.17 616.00,915.83 615.50,915.00 615.50,914.50 614.83,913.33 614.67,911.50 614.50,911.33 614.50,832.83 615.00,832.17 615.67,832.17 616.33,832.67 619.67,837.00 621.17,838.50 621.50,839.33 622.00,839.67 622.33,840.33 624.50,842.67 625.67,844.33 627.17,845.83 627.50,846.50 632.17,852.00 633.33,853.67 634.50,854.83 637.50,858.83 639.33,860.67 639.50,861.17 643.33,865.50 644.33,867.17 647.50,870.83 649.17,873.17 651.50,875.67 651.67,876.17 652.50,877.17 653.33,877.83 654.33,879.33 655.33,880.33 655.50,880.83 657.17,882.67 657.33,883.17 659.50,885.67 659.67,886.17 660.50,886.83 662.33,889.33 664.33,891.50 664.67,892.17 665.17,892.50 665.50,893.17 667.33,895.00 668.50,896.83 673.33,902.50 673.50,903.00 675.17,904.67 677.67,908.00 678.33,908.50 679.50,910.33 682.50,913.50 682.83,914.17 683.50,914.67 683.67,915.17 684.17,915.50 684.50,916.17 686.33,918.17 687.67,920.00 688.33,920.50 688.50,921.00 691.33,924.17 692.33,924.17 692.50,924.33 694.83,924.17 695.33,923.33 695.17,922.83 695.17,816.50 695.33,816.33 695.33,814.67 695.67,813.33 696.33,812.33 696.50,811.67 698.33,809.67 701.00,808.50 701.83,808.50 704.50,807.67 705.83,807.67 707.33,807.33 707.67,807.00 707.83,806.33 707.83,805.17 707.67,805.00 707.83,803.50 707.50,803.00 671.50,803.00 671.00,803.50 671.17,804.17 671.00,806.33 671.33,807.17 672.67,807.50 676.83,807.67 679.50,808.33 682.17,808.67 684.17,809.67 685.50,810.83 687.00,813.67 687.00,814.50 687.17,814.67 687.17,816.33 687.33,816.50 687.33,893.67 686.67,894.50 685.83,894.50 684.33,893.17 684.17,892.67 683.67,892.33 682.83,891.00 678.50,886.17 678.33,885.67 676.50,883.67 674.50,881.17 674.33,880.67 669.67,875.17 669.33,874.50 668.67,874.00 667.17,871.83 666.50,871.33 666.17,870.67 664.67,869.17 664.50,868.67 663.67,867.83 662.83,866.50 662.50,866.33 662.33,865.83 659.33,862.50 659.00,861.83 656.67,859.17 656.50,858.67 654.33,856.33 653.17,854.50 652.50,854.00 649.50,850.33 649.33,849.83 647.67,848.17 647.50,847.67 644.50,844.17 644.33,843.67 642.67,842.00 642.33,841.33 640.50,839.33 640.33,838.83 638.67,837.00 638.33,836.33 636.83,834.83 635.50,833.17 635.33,832.67 634.67,832.17 634.33,831.50 629.50,825.83 628.67,824.50 627.67,823.50 627.17,822.67 626.67,822.33 626.33,821.50 625.67,821.00 623.50,818.50 623.17,817.83 617.50,811.17 617.33,810.67 611.00,803.17 610.50,803.00 595.17,803.00 Z " fill="#ffffff" fill-rule="evenodd" /><path d="M 582.17,802.83 581.67,803.00 543.50,803.00 543.17,803.50 543.33,804.00 543.17,806.17 543.33,807.00 543.67,807.33 546.67,807.67 548.50,808.33 550.00,808.50 551.00,808.83 551.67,809.33 552.50,809.50 554.50,811.33 555.33,812.83 555.83,815.17 555.83,912.33 555.33,914.17 554.33,916.00 553.00,917.17 551.17,918.17 548.83,918.67 548.33,919.00 543.83,919.67 543.17,920.50 543.33,921.17 543.33,924.00 543.67,924.33 544.33,924.17 577.17,924.17 577.33,924.33 578.00,924.17 580.83,924.17 581.00,924.33 582.17,924.33 582.67,924.00 582.83,923.50 582.83,920.33 582.17,919.67 577.67,919.00 576.67,918.50 574.83,918.17 573.00,917.17 571.33,915.33 571.33,915.00 570.50,913.67 570.33,912.00 570.17,911.83 570.17,815.33 570.33,815.17 570.33,814.00 571.33,811.67 573.00,809.83 575.50,808.67 576.83,808.50 579.50,807.67 582.00,807.50 582.67,807.00 582.83,806.67 582.83,803.50 Z " fill="#ffffff" fill-rule="evenodd" /><path d="M 529.17,803.00 441.17,803.00 440.67,802.83 440.00,803.33 440.00,806.83 440.33,807.33 444.17,807.83 444.67,808.17 447.33,808.67 448.83,809.50 449.17,809.50 450.33,810.33 451.17,811.33 452.50,814.50 452.50,912.17 452.33,912.33 452.33,913.33 451.33,915.50 449.50,917.33 448.83,917.50 447.83,918.17 446.67,918.33 445.17,919.00 442.00,919.33 440.67,919.67 440.00,920.33 440.00,923.67 440.50,924.33 441.33,924.33 441.50,924.17 481.50,924.17 481.67,924.33 482.50,924.33 483.00,924.00 483.17,923.50 483.17,920.33 482.33,919.83 481.50,919.83 480.67,919.50 479.50,919.50 478.33,919.17 474.67,919.00 474.00,918.67 471.50,918.17 469.50,917.00 467.67,914.67 467.17,913.33 467.00,911.50 466.83,911.33 466.83,870.67 467.00,870.17 468.00,869.33 496.50,869.33 498.83,869.83 501.67,871.33 502.83,872.67 503.50,874.00 504.00,874.50 504.83,876.50 505.50,879.33 506.00,880.50 506.67,885.17 507.50,887.00 510.67,887.00 511.17,887.17 511.50,886.67 511.50,845.17 511.67,844.50 511.33,843.67 507.50,843.67 506.67,845.67 506.00,850.33 505.33,851.83 505.17,853.33 504.50,854.67 504.33,855.67 502.50,858.50 501.50,859.50 499.83,860.50 497.33,861.33 467.83,861.33 467.00,860.67 466.83,860.33 466.83,816.67 467.33,814.67 468.83,812.83 470.50,811.67 474.17,810.83 504.00,810.83 504.17,811.00 507.50,811.17 508.83,811.50 511.33,811.67 512.83,812.33 514.33,812.67 517.00,814.50 518.33,815.83 518.50,816.33 520.17,818.50 520.33,819.33 521.17,820.67 521.50,822.00 522.00,822.67 522.33,824.17 523.17,825.67 523.50,827.17 524.17,828.17 524.33,829.33 525.17,830.67 525.50,832.17 526.00,832.83 526.67,834.83 527.33,835.33 530.50,835.33 531.00,835.17 531.17,834.00 531.00,833.83 530.83,829.67 530.67,829.50 530.67,824.50 530.50,824.33 530.50,821.00 530.33,820.83 530.33,818.17 530.17,818.00 530.17,815.33 530.00,815.17 529.83,808.67 529.67,808.50 529.67,806.17 529.50,806.00 529.50,803.50 Z " fill="#ffffff" fill-rule="evenodd" /><path d="M 428.17,802.83 427.67,803.00 389.67,803.00 389.33,803.50 389.50,804.00 389.50,807.00 389.83,807.33 391.50,807.67 393.00,807.67 394.67,808.33 396.33,808.50 399.00,809.67 400.17,810.67 400.33,811.17 400.83,811.67 402.17,814.83 402.17,912.33 401.00,915.17 400.50,915.67 400.33,916.17 399.00,917.33 398.67,917.33 397.00,918.33 395.50,918.50 394.67,919.00 391.50,919.33 390.33,919.83 389.83,919.83 389.33,920.50 389.50,921.17 389.50,924.00 390.33,924.33 391.17,924.33 391.33,924.17 427.00,924.17 427.17,924.33 428.33,924.33 428.67,924.00 428.83,923.33 428.67,922.67 428.83,920.50 428.17,919.67 427.50,919.67 425.83,919.17 424.50,919.17 422.83,918.50 421.50,918.33 419.17,917.17 417.67,915.67 417.33,914.67 416.67,913.67 416.50,911.33 416.33,911.17 416.33,816.33 416.50,816.17 416.50,814.00 417.33,812.50 417.50,811.67 419.33,809.67 421.50,808.67 423.00,808.50 424.67,807.83 428.33,807.33 428.67,807.00 428.83,806.33 428.67,805.67 428.83,803.50 Z " fill="#ffffff" fill-rule="evenodd" /><path d="M 196.50,801.33 195.67,801.50 194.33,802.17 192.50,802.33 189.67,803.17 186.50,804.67 186.17,805.00 184.50,805.50 182.67,807.00 181.50,807.67 181.33,808.00 180.50,808.33 179.67,809.00 175.33,813.83 175.33,814.17 174.67,815.00 174.17,816.33 173.50,817.00 173.17,818.00 172.50,819.00 172.00,821.00 171.50,821.83 171.17,823.17 171.17,824.17 170.50,826.17 170.50,827.17 170.33,827.33 170.50,834.33 171.50,839.17 172.17,840.50 172.33,842.00 173.33,843.67 173.33,844.17 173.67,844.50 174.33,846.17 177.83,851.17 182.00,855.17 186.17,858.33 188.83,859.67 189.67,860.33 190.67,860.67 191.17,861.17 193.00,861.83 194.17,862.50 195.00,862.67 195.67,863.17 196.83,863.67 197.33,863.67 198.67,864.33 200.17,864.67 202.67,865.83 203.17,865.83 203.50,866.17 204.33,866.33 205.67,867.17 209.67,868.50 211.67,869.50 212.17,869.50 213.50,870.33 215.33,870.83 222.33,874.67 222.50,875.00 223.33,875.33 226.00,877.50 229.33,881.00 231.67,884.67 232.50,886.67 232.50,887.33 233.50,890.17 233.50,892.33 233.67,892.50 233.67,894.17 233.83,894.33 233.33,900.67 232.67,902.33 232.33,904.17 231.33,906.00 231.33,906.33 230.50,907.50 230.33,908.17 229.67,908.83 229.50,909.33 226.67,912.33 223.17,915.00 222.00,915.33 218.83,917.00 216.67,917.33 214.17,918.17 207.50,918.50 207.33,918.33 204.33,918.33 204.17,918.17 201.83,918.00 200.00,917.33 198.00,917.17 194.00,915.33 192.67,915.00 190.67,913.50 188.17,912.00 185.00,909.17 180.50,903.83 180.33,903.33 179.83,902.83 179.50,901.83 177.67,899.33 177.67,899.00 176.50,897.00 175.50,894.50 173.67,891.17 173.67,890.67 172.67,888.83 172.33,887.50 171.67,887.17 167.83,887.17 167.67,887.33 167.67,888.17 168.17,889.67 168.33,892.83 169.17,896.33 169.50,901.17 170.33,905.17 170.33,907.17 170.67,908.83 171.00,909.50 171.33,913.50 172.00,915.83 172.17,917.50 173.50,918.50 173.83,918.50 175.17,919.33 176.50,919.67 177.83,920.50 178.33,920.50 179.50,921.17 181.00,921.50 183.33,922.50 185.33,922.83 185.67,923.17 186.67,923.50 188.33,923.67 189.83,924.33 191.67,924.50 192.50,924.83 193.33,924.83 197.50,925.67 200.67,925.67 202.33,926.00 205.67,926.00 205.83,926.17 212.17,925.83 212.33,925.67 215.00,925.67 218.00,925.00 218.67,924.67 221.17,924.33 222.50,923.67 223.33,923.50 224.83,922.67 226.17,922.33 226.83,921.83 228.83,921.17 229.33,920.67 233.33,918.17 233.50,917.83 235.33,916.50 237.83,913.67 238.33,913.33 239.33,912.00 240.00,910.67 240.50,910.17 240.50,909.83 242.33,907.17 244.33,901.83 244.33,901.17 245.17,898.33 245.50,894.33 245.67,894.17 245.67,886.83 245.50,886.67 245.17,883.33 244.67,882.17 244.33,880.17 243.50,878.50 243.33,877.67 242.33,876.17 242.17,875.50 241.33,874.67 239.33,871.50 238.67,871.00 234.83,866.67 231.00,863.67 229.50,863.00 229.00,862.50 226.50,861.17 226.00,860.67 224.83,860.33 224.17,859.83 219.33,857.50 218.83,857.50 217.00,856.50 216.50,856.50 214.83,855.67 213.00,855.17 211.83,854.50 210.83,854.33 209.33,853.50 205.00,852.00 204.17,851.50 203.67,851.50 199.33,849.50 198.00,849.17 192.67,846.17 188.67,843.17 185.67,839.83 184.67,838.33 184.50,837.50 183.67,836.33 183.33,834.83 182.67,833.50 182.67,832.50 182.33,831.17 182.33,829.33 182.17,829.17 182.67,823.33 183.33,822.00 183.83,820.00 184.33,819.50 184.50,818.83 185.67,816.83 186.67,815.67 189.67,812.83 190.17,812.67 191.67,811.50 192.00,811.50 195.33,809.67 197.00,809.50 199.67,808.67 202.00,808.67 202.17,808.50 207.67,808.67 209.83,809.33 212.67,809.67 214.33,810.50 215.33,810.67 216.67,811.50 217.17,811.50 218.67,812.50 220.00,813.00 222.33,814.50 224.83,816.50 229.33,821.00 230.00,822.17 231.33,823.67 232.33,825.50 232.50,826.33 233.33,827.50 234.50,830.00 235.50,832.83 236.50,834.67 236.83,836.00 237.67,836.83 240.67,836.83 241.17,836.67 241.33,835.67 240.50,831.67 240.33,828.33 239.67,825.17 239.67,823.17 239.50,823.00 239.50,821.67 239.00,819.00 238.83,816.50 238.33,814.17 238.33,812.17 238.17,812.00 238.00,809.67 237.33,808.50 235.83,808.00 234.83,807.33 233.50,807.00 232.50,806.33 231.50,806.17 230.33,805.50 227.50,805.00 226.33,804.33 224.67,804.17 223.50,803.50 222.83,803.50 219.83,802.67 214.50,802.00 213.33,801.50 212.33,801.50 212.17,801.33 206.33,801.33 206.17,801.17 204.67,801.17 204.50,801.00 Z " fill="#ffffff" fill-rule="evenodd" /><path d="M 206.67,783.50 206.33,784.00 206.33,792.83 206.50,793.00 206.33,798.17 206.50,798.50 208.00,799.17 210.33,799.67 210.83,799.33 210.83,785.33 210.67,784.83 210.17,784.33 209.00,784.17 207.33,783.50 Z " fill="#ffffff" fill-rule="evenodd" /><path d="M 45.83,783.50 45.00,785.33 44.00,786.67 43.33,789.00 42.83,789.50 42.17,791.33 41.50,792.00 41.50,792.33 40.50,794.00 40.33,795.17 39.33,796.83 39.00,798.17 38.67,798.50 38.17,800.17 37.67,800.83 37.17,803.50 36.50,804.50 36.17,806.00 35.67,806.67 35.17,809.67 34.67,810.50 34.33,812.67 33.67,814.33 33.50,815.83 32.83,817.83 32.17,823.00 31.50,824.33 31.33,826.67 30.33,830.50 30.33,832.50 29.67,834.33 29.33,842.67 29.00,843.67 28.83,847.50 28.67,847.67 28.50,851.50 28.33,851.67 28.33,868.17 28.50,868.33 28.33,869.00 28.33,870.00 28.50,870.17 28.33,872.33 28.50,872.50 28.50,876.00 29.00,878.67 29.00,881.67 29.17,881.83 29.33,885.00 29.50,885.17 29.50,888.33 30.00,890.50 30.00,891.83 30.33,892.83 30.50,895.50 30.67,896.17 31.00,896.50 31.50,900.17 32.17,901.83 32.67,906.33 33.33,907.50 33.50,909.50 34.00,910.67 34.33,912.67 35.33,915.00 35.50,917.33 36.33,918.67 36.33,919.17 37.33,921.67 37.50,922.83 38.33,924.50 38.50,925.83 39.17,926.83 39.50,927.67 39.50,928.33 40.33,929.67 40.50,931.00 41.33,932.33 41.50,933.17 42.50,934.83 42.50,935.33 42.83,936.00 43.33,936.50 43.67,938.00 44.17,938.67 44.67,940.00 45.17,940.50 45.67,942.00 46.67,943.17 47.00,943.17 48.83,941.67 50.17,941.00 51.67,939.50 52.00,939.50 52.67,938.83 53.83,938.33 54.50,937.67 55.33,937.33 56.33,936.50 57.00,936.33 59.67,934.33 60.33,934.17 60.67,933.67 61.83,933.17 62.67,932.50 63.17,932.50 63.83,932.17 64.50,931.50 65.50,931.17 66.17,930.50 67.17,930.17 67.67,929.67 69.17,929.17 69.67,928.50 70.50,928.00 74.50,926.33 75.50,925.50 76.17,925.33 77.83,924.33 78.17,924.33 79.67,923.33 80.17,923.33 81.17,922.50 82.33,922.33 83.50,921.50 84.83,921.17 85.33,920.67 86.50,920.17 87.33,919.50 89.00,919.17 89.50,918.67 90.17,918.50 91.83,917.50 93.00,917.17 93.50,916.67 95.33,916.33 98.17,914.67 98.50,914.17 98.50,913.83 97.50,912.17 97.17,911.00 96.50,910.33 96.33,909.17 95.50,908.00 95.33,906.67 94.67,905.33 94.33,903.83 93.67,903.00 93.33,901.33 92.67,900.33 92.17,897.83 91.50,896.67 91.33,895.17 90.50,893.33 90.33,891.50 89.83,890.33 89.50,888.67 89.50,886.83 88.33,882.67 88.17,880.50 87.67,878.83 87.67,876.67 87.50,876.50 87.33,873.83 87.17,873.67 87.17,870.17 87.00,870.00 86.83,865.83 86.67,865.67 86.67,859.33 87.17,857.00 87.17,852.50 87.33,852.33 87.33,850.67 87.50,850.50 87.50,847.33 87.67,847.17 87.67,846.33 88.17,845.17 88.17,843.67 88.83,842.00 89.00,840.67 89.33,839.83 89.67,835.67 90.33,834.50 90.67,831.83 92.33,827.67 92.67,825.67 93.33,824.83 93.50,823.83 94.67,821.17 94.67,820.67 95.17,820.00 95.50,818.33 96.33,817.17 96.83,815.67 97.33,815.17 97.67,813.67 98.50,812.50 98.67,811.50 98.17,810.83 97.50,810.50 96.17,810.33 95.17,809.67 93.67,809.17 92.83,808.50 91.83,808.33 89.00,806.83 87.67,806.50 86.00,805.33 84.50,805.17 84.00,804.67 80.83,803.17 80.17,802.50 79.67,802.50 77.17,801.33 76.67,801.33 75.83,800.67 74.67,800.33 74.00,799.83 72.33,799.17 71.83,798.67 70.50,798.17 70.00,797.67 68.67,797.17 67.33,796.33 66.50,796.17 66.00,795.67 64.83,795.17 64.17,794.50 62.67,794.00 60.83,792.67 59.67,792.17 59.00,791.50 57.67,791.17 55.83,789.67 54.50,789.17 52.67,787.67 51.67,787.33 51.00,786.50 50.67,786.50 49.50,785.50 48.67,785.17 48.33,784.67 47.50,784.33 46.83,783.50 Z " fill="#ffffff" fill-rule="evenodd" /><path d="M 125.50,711.67 125.67,712.33 126.17,712.67 126.67,713.67 128.33,715.50 128.50,716.17 129.17,716.67 130.33,718.67 131.33,719.67 131.67,720.50 132.50,721.50 132.50,722.17 133.17,722.83 133.67,724.17 134.17,724.50 134.50,725.50 135.33,726.50 135.50,727.33 137.50,730.50 137.50,731.00 138.17,731.83 138.50,733.17 139.00,733.67 139.67,735.33 140.17,735.83 140.50,736.83 141.50,738.50 141.67,739.17 142.17,739.67 142.50,741.17 143.33,742.50 143.50,743.50 144.33,744.67 144.33,745.17 144.67,745.83 145.33,746.50 145.83,748.17 146.17,748.50 146.17,749.00 146.67,750.00 147.33,750.67 147.50,752.17 148.33,753.67 148.50,754.50 149.17,755.50 149.33,756.50 150.17,757.50 150.50,758.83 151.17,759.67 151.50,761.17 152.67,763.17 153.33,763.17 156.50,761.50 157.33,761.33 158.67,760.50 160.00,760.17 160.50,759.67 162.83,759.33 164.17,758.50 165.67,758.17 166.50,757.67 168.00,757.50 170.67,756.50 172.33,756.33 174.33,755.50 176.17,755.33 178.67,754.50 181.50,754.33 182.33,754.00 183.50,754.00 185.33,753.50 189.17,753.33 191.33,752.67 200.33,752.50 200.50,752.33 206.00,752.33 206.17,752.50 208.33,752.33 208.50,752.50 210.50,752.50 210.67,752.67 215.67,752.67 216.67,753.17 218.50,753.33 218.67,753.50 223.83,753.67 225.17,754.17 226.50,754.17 231.00,755.33 232.17,755.33 234.17,755.83 235.50,756.50 237.17,756.67 238.83,757.33 241.17,757.83 242.00,758.33 243.50,758.50 244.83,759.33 246.33,759.50 247.33,759.83 247.67,760.17 249.50,760.67 250.33,761.33 252.17,761.83 253.83,762.83 254.67,762.83 255.33,762.17 255.67,760.33 256.50,759.17 256.50,758.50 257.33,757.17 257.50,755.83 258.33,754.67 258.50,753.33 260.33,749.83 260.50,748.83 261.17,748.17 261.50,747.00 262.17,746.17 262.67,744.67 263.17,744.17 263.67,742.33 264.17,741.83 265.67,738.50 267.33,735.83 267.83,734.50 268.33,734.00 268.50,733.00 269.17,732.17 269.67,730.67 270.17,730.33 270.33,729.50 271.33,728.17 271.50,727.50 272.33,726.50 272.67,725.50 273.17,725.00 273.50,723.67 274.17,723.00 274.83,721.50 275.33,721.00 275.33,720.67 277.33,718.17 277.50,717.50 278.33,716.67 278.67,715.83 279.33,715.17 279.50,714.50 280.33,713.83 280.83,712.83 282.17,711.33 282.17,710.83 280.67,710.33 279.17,709.50 278.33,709.33 277.33,708.50 276.33,708.17 275.50,708.17 272.17,706.67 269.83,706.17 269.33,705.67 268.50,705.33 267.17,705.17 265.67,704.50 263.83,704.17 262.67,703.50 261.17,703.33 259.67,702.50 257.00,702.33 256.17,701.83 253.17,701.33 251.00,700.50 248.50,700.17 247.00,699.50 243.33,699.17 242.50,698.67 241.67,698.50 240.33,698.50 239.17,698.17 237.33,698.17 235.67,697.50 229.67,697.17 227.33,696.50 223.17,696.50 221.67,696.17 216.83,696.17 215.83,695.83 212.50,695.67 212.33,695.50 198.50,695.50 198.33,695.67 195.33,695.83 193.17,696.33 188.50,696.33 188.33,696.50 185.83,696.50 185.67,696.67 182.33,696.67 180.33,697.17 178.17,697.17 176.17,697.67 174.50,697.67 172.83,698.33 169.83,698.33 169.67,698.50 167.50,698.67 166.17,699.33 163.67,699.50 162.17,700.00 159.50,700.33 157.67,701.17 154.67,701.50 153.17,702.17 149.83,702.67 148.33,703.33 146.67,703.67 146.00,704.17 144.50,704.33 142.50,705.17 140.67,705.50 139.17,706.33 137.83,706.50 136.17,707.33 134.83,707.50 134.17,708.00 132.00,708.50 130.83,709.33 129.83,709.50 128.17,710.33 127.67,710.33 Z " fill="#ffffff" fill-rule="evenodd" /></svg>